<svg id="Слой_1" data-name="Слой 1" xmlns="http://www.w3.org/2000/svg" viewBox="0 0 85.5 95.88"><defs><style>.cls-1{fill:#2a4157;fill-opacity:0.7;fill-rule:evenodd;}.cls-2{fill:#f8f9fa;}.cls-3{fill:none;stroke:#f8f9fa;stroke-linecap:round;stroke-width:0.5px;}.cls-4{fill:#f8f9ff;}.cls-5{stroke:#201600;stroke-miterlimit:10;}.cls-6{fill:#0d9343;}</style></defs><title>duotone_line</title><path class="cls-1" d="M51.88,78c7-3.63,31.18-17.89,31.18-41.58a33.06,33.06,0,0,0-66.12,0c0,23.69,24.18,38,31.18,41.58A4,4,0,0,0,51.88,78ZM50,50.59A14.17,14.17,0,1,0,35.83,36.42,14.17,14.17,0,0,0,50,50.59Z" transform="translate(-7.25 -2.19)"/><path class="cls-2" d="M51.88,78l.54,1h0Zm-3.76,0-.54,1h0ZM81.88,36.42c0,11.42-5.83,20.62-12.62,27.48A74.81,74.81,0,0,1,51.34,77l1.08,2.1A77.2,77.2,0,0,0,70.93,65.56c7-7.1,13.31-16.86,13.31-29.14ZM50,4.55A31.88,31.88,0,0,1,81.88,36.42h2.36A34.24,34.24,0,0,0,50,2.19ZM18.12,36.42A31.88,31.88,0,0,1,50,4.55V2.19A34.24,34.24,0,0,0,15.76,36.42ZM48.66,77A74.81,74.81,0,0,1,30.74,63.9C24,57,18.12,47.84,18.12,36.42H15.76c0,12.28,6.27,22,13.31,29.14A77.2,77.2,0,0,0,47.58,79.05Zm2.68,0a2.89,2.89,0,0,1-2.68,0l-1.08,2.1a5.24,5.24,0,0,0,4.84,0ZM63,36.42a13,13,0,0,1-13,13v2.36A15.35,15.35,0,0,0,65.35,36.42Zm-13-13a13,13,0,0,1,13,13h2.36A15.34,15.34,0,0,0,50,21.08Zm-13,13a13,13,0,0,1,13-13V21.08A15.34,15.34,0,0,0,34.65,36.42Zm13,13a13,13,0,0,1-13-13H34.65A15.35,15.35,0,0,0,50,51.77Z" transform="translate(-7.25 -2.19)"/><path class="cls-3" d="M86.81,76.56c3.73,2.16,5.69,4.6,5.69,7.09s-2,4.93-5.69,7.08-9.1,3.94-15.56,5.18A113.87,113.87,0,0,1,50,97.81a113.87,113.87,0,0,1-21.25-1.9c-6.46-1.24-11.83-3-15.56-5.18S7.5,86.13,7.5,83.65s2-4.93,5.69-7.09" transform="translate(-7.25 -2.19)"/><circle class="cls-4" cx="42.75" cy="32.81" r="25"/><path class="cls-5" d="M70,22.51a.7.7,0,0,0-1-.16l-2.37,2a1.85,1.85,0,0,1-2.6-.22l-.66-.79a1.85,1.85,0,0,1,.22-2.6l2.41-2a.7.7,0,0,0,0-1.06,24.87,24.87,0,0,0-3.09-2.41.7.7,0,0,0-1,.3l-1.31,2.79a1.84,1.84,0,0,1-2.44.9l-.93-.44a1.83,1.83,0,0,1-.89-2.44l1.32-2.86a.71.71,0,0,0-.43-1,21.49,21.49,0,0,0-3.83-.87.7.7,0,0,0-.8.7v3.1a1.85,1.85,0,0,1-1.85,1.84h-1a1.85,1.85,0,0,1-1.85-1.84V12.3a.7.7,0,0,0-.78-.7,22.32,22.32,0,0,0-3.85.82.71.71,0,0,0-.44,1l1.32,2.82a1.85,1.85,0,0,1-.9,2.45l-.92.43a1.84,1.84,0,0,1-2.45-.89l-1.32-2.85a.71.71,0,0,0-1-.31,22.77,22.77,0,0,0-3.13,2.37.71.71,0,0,0,0,1.07l2.37,2a1.84,1.84,0,0,1,.22,2.6l-.66.78a1.84,1.84,0,0,1-2.6.23l-2.4-2a.72.72,0,0,0-1.05.16A23.5,23.5,0,1,0,73.5,34.92,23.1,23.1,0,0,0,70,22.51ZM50.2,53.86A17.63,17.63,0,1,1,67.82,36.24,17.63,17.63,0,0,1,50.2,53.86Z" transform="translate(-7.25 -2.19)"/><path class="cls-6" d="M58.36,22.89,53.29,33.77a1.87,1.87,0,0,1-2.5.9l-.86-.4a1.88,1.88,0,0,1-.91-2.5l5-10.68a.7.7,0,0,0-.5-1A16.51,16.51,0,0,0,33.73,36.24,16.45,16.45,0,1,0,59.38,22.59.71.71,0,0,0,58.36,22.89Z" transform="translate(-7.25 -2.19)"/></svg>